<?xml version="1.0" standalone="no"?>
<!DOCTYPE svg PUBLIC "-//W3C//DTD SVG 20010904//EN"
 "http://www.w3.org/TR/2001/REC-SVG-20010904/DTD/svg10.dtd">
<svg version="1.0" xmlns="http://www.w3.org/2000/svg"
 width="512.000000pt" height="512.000000pt" viewBox="0 0 512.000000 512.000000"
 preserveAspectRatio="xMidYMid meet">
<metadata>
Created by potrace 1.14, written by Peter Selinger 2001-2017
</metadata>
<g transform="translate(0.000000,512.000000) scale(0.100000,-0.100000)"
fill="#000000" stroke="none">
<path d="M2583 4408 c-6 -7 -13 -58 -16 -113 -3 -62 -15 -132 -30 -184 -25
-84 -25 -85 -5 -100 17 -15 18 -20 7 -44 -10 -21 -10 -35 0 -64 11 -34 10 -44
-9 -88 -30 -71 -51 -167 -44 -205 4 -18 1 -41 -6 -55 -11 -20 -10 -28 4 -49
14 -22 15 -38 7 -108 -5 -46 -7 -103 -4 -128 6 -55 -18 -119 -47 -127 -11 -3
-20 -12 -20 -19 0 -18 -18 -17 -50 1 -35 20 -69 19 -76 -2 -15 -47 -32 -65
-80 -89 -41 -20 -64 -25 -105 -22 -52 3 -54 2 -70 -33 -15 -30 -28 -39 -91
-64 -103 -40 -239 -109 -276 -140 -26 -21 -32 -34 -32 -65 0 -21 6 -43 15 -50
8 -7 15 -22 15 -34 0 -65 103 -137 218 -152 48 -6 54 -5 59 14 4 19 10 20 53
15 48 -5 49 -5 55 23 4 16 8 35 10 41 6 18 66 53 92 53 12 0 51 25 87 55 61
52 67 55 120 55 43 0 56 3 56 15 0 8 5 15 10 15 10 0 6 -94 -5 -155 -2 -11 0
-40 5 -65 8 -41 6 -50 -21 -92 -39 -60 -102 -117 -138 -124 -28 -6 -280 -198
-298 -226 -12 -21 -352 -218 -375 -218 -49 0 -103 -26 -148 -72 -36 -37 -55
-48 -78 -48 -34 0 -46 -14 -105 -123 -35 -65 -47 -107 -29 -107 5 0 58 -9 119
-20 104 -19 113 -19 149 -4 22 9 68 18 104 19 66 2 176 39 209 70 9 8 42 26
72 40 34 15 60 34 67 50 6 14 23 27 39 31 15 4 48 26 73 49 25 24 60 52 77 62
18 11 49 42 69 69 108 144 216 243 234 214 12 -19 25 -133 25 -220 0 -41 4
-125 9 -187 9 -110 8 -113 -18 -167 -29 -58 -63 -92 -104 -103 -19 -4 -29 1
-49 26 -23 29 -29 31 -88 31 -56 0 -64 3 -70 21 -10 30 -64 49 -143 49 -56 0
-72 -4 -87 -20 -16 -18 -17 -23 -5 -45 14 -25 83 -65 113 -65 9 0 17 -6 17
-13 0 -18 55 -69 113 -105 27 -17 140 -69 251 -117 196 -84 204 -86 244 -76
58 16 126 70 130 104 2 18 -1 27 -11 27 -12 0 -14 12 -10 63 4 48 2 65 -9 75
-12 10 -14 22 -6 60 10 53 4 89 -19 114 -8 9 -12 21 -9 26 3 4 -2 50 -10 101
-13 84 -13 95 1 110 20 23 19 34 -6 57 -49 45 -63 109 -29 139 11 10 20 29 20
42 0 19 -5 23 -30 23 -52 0 -36 27 21 35 44 6 72 0 233 -51 175 -55 183 -59
192 -88 6 -20 18 -33 39 -39 17 -5 44 -22 60 -38 17 -15 42 -31 58 -34 17 -5
27 -14 27 -25 0 -44 10 -50 76 -50 59 0 64 -2 76 -27 15 -33 52 -42 77 -19 12
11 25 13 54 6 21 -4 51 -5 66 0 24 7 39 -1 125 -67 91 -70 100 -75 136 -70 30
4 43 1 56 -14 21 -24 89 -26 98 -4 3 8 15 15 26 15 16 0 20 7 20 30 0 25 -4
30 -25 30 -22 0 -25 4 -25 34 0 55 -155 246 -226 278 -12 6 -27 21 -33 34 -14
32 -39 42 -296 113 -356 98 -422 113 -518 115 -51 2 -92 7 -99 14 -17 17 -58
15 -58 -3 0 -14 -3 -14 -28 -1 -20 10 -39 12 -64 7 -33 -8 -36 -6 -46 24 -24
64 -16 103 32 156 45 50 78 126 116 263 18 65 19 71 3 88 -23 25 -44 23 -104
-12 -28 -17 -52 -30 -54 -28 -1 2 -11 31 -23 64 l-20 62 29 6 c20 4 30 13 35
30 5 21 21 30 112 60 61 21 146 40 198 46 99 11 149 25 177 48 14 12 17 32 17
99 l0 84 -32 13 c-18 8 -86 26 -151 41 -117 28 -117 28 -100 49 28 33 45 46
85 65 21 10 51 36 68 59 29 41 75 72 105 72 8 0 15 8 15 19 0 23 68 126 109
165 29 28 31 34 31 100 0 83 -17 126 -79 204 l-42 52 -57 -2 c-43 -1 -65 -8
-89 -26 -32 -24 -43 -55 -23 -67 6 -3 10 -13 10 -22 0 -35 -302 -452 -328
-453 -8 0 -19 -13 -25 -30 -9 -24 -17 -30 -40 -30 l-30 0 8 73 c10 108 53 360
76 450 11 44 18 84 16 90 -2 7 16 41 40 77 49 73 56 91 51 145 -3 36 -7 40
-92 91 -88 54 -134 66 -153 42z"/>
<path d="M1752 3734 c-52 -47 -62 -61 -62 -89 0 -34 92 -244 113 -257 7 -4 24
-8 39 -8 17 0 34 -10 47 -26 20 -25 21 -25 76 -13 42 9 58 10 67 1 23 -23 67
-13 108 24 21 19 42 44 45 55 5 15 12 18 31 13 21 -5 31 1 59 34 19 22 45 42
57 46 13 3 43 33 67 66 42 59 43 62 26 80 -15 17 -31 20 -103 20 -60 0 -90 -4
-101 -14 -18 -16 -108 -38 -161 -39 -19 -1 -53 8 -75 18 -37 19 -40 23 -45 70
-7 69 -13 75 -74 75 -50 0 -56 -3 -114 -56z"/>
</g>
</svg>
